<?xml version="1.0" encoding="utf-8"?>
<!-- Generator: Adobe Illustrator 25.0.0, SVG Export Plug-In . SVG Version: 6.00 Build 0)  -->
<svg version="1.1" id="Layer_2" xmlns="http://www.w3.org/2000/svg" xmlns:xlink="http://www.w3.org/1999/xlink" x="0px" y="0px"
	 viewBox="0 0 192.6 111.8" style="enable-background:new 0 0 192.6 111.8;" xml:space="preserve">
<style type="text/css">
	.st0{fill:#FFFFFF;}
	.st1{opacity:0.6;fill:#FFFFFF;}
	.st2{opacity:0.2;}
	.st3{opacity:0.8;fill:#FFFFFF;}
</style>
<g id="Logo">
	<g>
		<g>
			<g>
				<path class="st0" d="M14.3,94.2H6.2v6.3h9.1v3.2h-13V82.2h12.5v3.2H6.2V91h8.1V94.2z"/>
				<path class="st0" d="M27.4,103.8l-0.3-1.7H27c-1,1.2-2.6,2.1-4.6,2.1c-3.1,0-4.9-2.3-4.9-4.6c0-3.9,3.5-5.9,9.2-5.9v-0.3
					c0-1-0.4-2.7-3.2-2.7c-1.5,0-3.1,0.5-4.2,1.2l-0.8-2.6c1.2-0.7,3.2-1.4,5.6-1.4c5,0,6.4,3.2,6.4,6.6v5.6c0,1.4,0.1,2.8,0.2,3.7
					H27.4z M26.8,96.2c-2.8-0.1-5.4,0.5-5.4,2.9c0,1.5,1,2.2,2.2,2.2c1.6,0,2.7-1,3.1-2.1c0.1-0.3,0.1-0.6,0.1-0.9V96.2z"/>
				<path class="st0" d="M39.2,83.8v4.4h3.7v2.9h-3.7V98c0,1.9,0.5,2.9,2,2.9c0.7,0,1.2-0.1,1.5-0.2l0.1,3c-0.6,0.2-1.6,0.4-2.8,0.4
					c-1.4,0-2.7-0.5-3.4-1.3c-0.8-0.9-1.2-2.3-1.2-4.4v-7.3h-2.2v-2.9h2.2v-3.5L39.2,83.8z"/>
				<path class="st0" d="M52.7,82.5c1.7-0.3,3.9-0.4,6.3-0.4c4,0,6.8,0.8,8.8,2.5c2.1,1.7,3.4,4.3,3.4,7.9c0,3.8-1.3,6.7-3.4,8.6
					c-2.1,2-5.6,2.9-9.8,2.9c-2.3,0-4-0.1-5.3-0.3V82.5z M56.6,100.8c0.5,0.1,1.4,0.1,2.2,0.1c5.1,0,8.2-2.8,8.2-8.3
					c0-4.8-2.7-7.5-7.6-7.5c-1.2,0-2.1,0.1-2.7,0.2V100.8z"/>
				<path class="st0" d="M83.1,103.8l-0.3-1.7h-0.1c-1,1.2-2.6,2.1-4.6,2.1c-3.1,0-4.9-2.3-4.9-4.6c0-3.9,3.5-5.9,9.2-5.9v-0.3
					c0-1-0.4-2.7-3.2-2.7c-1.5,0-3.1,0.5-4.2,1.2l-0.8-2.6c1.2-0.7,3.2-1.4,5.6-1.4c5,0,6.4,3.2,6.4,6.6v5.6c0,1.4,0.1,2.8,0.2,3.7
					H83.1z M82.6,96.2c-2.8-0.1-5.4,0.5-5.4,2.9c0,1.5,1,2.2,2.2,2.2c1.6,0,2.7-1,3.1-2.1c0.1-0.3,0.1-0.6,0.1-0.9V96.2z"/>
				<path class="st1" d="M97.1,82.5c1.3-0.3,3.9-0.4,6.3-0.4c3,0,4.8,0.3,6.4,1.2c1.5,0.8,2.6,2.3,2.6,4.2c0,1.9-1.1,3.7-3.6,4.6
					v0.1c2.5,0.7,4.3,2.5,4.3,5.3c0,2-0.9,3.5-2.2,4.6c-1.6,1.2-4.2,2-8.5,2c-2.4,0-4.2-0.2-5.3-0.3V82.5z M101.9,90.8h1.6
					c2.6,0,3.9-1.1,3.9-2.7c0-1.6-1.2-2.5-3.5-2.5c-1.1,0-1.7,0.1-2.1,0.1V90.8z M101.9,100.3c0.5,0.1,1.1,0.1,1.9,0.1
					c2.2,0,4.2-0.8,4.2-3.1c0-2.2-2-3-4.4-3h-1.7V100.3z"/>
				<path class="st1" d="M131,98.8c0,2,0.1,3.7,0.1,5h-4.2l-0.2-2.2h-0.1c-0.6,1-2.1,2.6-4.9,2.6c-3.2,0-5.5-2-5.5-6.8v-9.2h4.9v8.4
					c0,2.3,0.7,3.6,2.4,3.6c1.3,0,2.1-0.9,2.4-1.7c0.1-0.3,0.2-0.7,0.2-1.1v-9.3h4.9V98.8z"/>
				<path class="st1" d="M134.9,93.3c0-2.3-0.1-3.8-0.1-5.2h4.2l0.2,2.9h0.1c0.8-2.3,2.7-3.2,4.2-3.2c0.4,0,0.7,0,1,0.1v4.6
					c-0.4-0.1-0.8-0.1-1.3-0.1c-1.8,0-3,1-3.3,2.5c-0.1,0.3-0.1,0.7-0.1,1.1v7.9h-4.9V93.3z"/>
				<path class="st1" d="M161.8,88.2c-0.1,1-0.1,2.3-0.1,4.6v8.7c0,3-0.6,5.5-2.4,7c-1.7,1.5-4.1,1.9-6.4,1.9c-2,0-4.2-0.4-5.6-1.2
					l1-3.7c1,0.6,2.7,1.2,4.5,1.2c2.3,0,4.1-1.2,4.1-4.1v-1h-0.1c-0.9,1.3-2.4,2-4.2,2c-3.9,0-6.6-3.1-6.6-7.6c0-5,3.3-8.2,7.1-8.2
					c2.1,0,3.5,0.9,4.3,2.2h0.1l0.2-1.9H161.8z M156.8,94.5c0-0.3,0-0.6-0.1-0.9c-0.4-1.3-1.3-2.1-2.6-2.1c-1.8,0-3.2,1.6-3.2,4.4
					c0,2.3,1.2,4.2,3.2,4.2c1.2,0,2.2-0.8,2.6-2c0.1-0.4,0.2-0.9,0.2-1.3V94.5z"/>
				<path class="st1" d="M169.3,97.5c0.2,2,2.1,3,4.4,3c1.7,0,3-0.2,4.3-0.6l0.6,3.3c-1.6,0.6-3.6,1-5.7,1c-5.3,0-8.4-3.1-8.4-8
					c0-4,2.5-8.4,7.9-8.4c5.1,0,7,3.9,7,7.8c0,0.8-0.1,1.6-0.2,1.9H169.3z M175,94.2c0-1.2-0.5-3.2-2.8-3.2c-2,0-2.9,1.9-3,3.2H175z
					"/>
				<path class="st1" d="M182.4,93.3c0-2.3-0.1-3.8-0.1-5.2h4.2l0.2,2.9h0.1c0.8-2.3,2.7-3.2,4.2-3.2c0.4,0,0.7,0,1,0.1v4.6
					c-0.4-0.1-0.8-0.1-1.3-0.1c-1.8,0-3,1-3.3,2.5c-0.1,0.3-0.1,0.7-0.1,1.1v7.9h-4.9V93.3z"/>
			</g>
		</g>
		<g id="Burger_8_">
			<g>
				<path class="st0" d="M60.8,56.3l-1.8,0c-2.6,0-4.7,2.1-4.6,4.7l0,0c0,2.6,2.1,4.7,4.7,4.6l1.8,0c2.6,0,4.7-2.1,4.6-4.7v0
					C65.5,58.4,63.4,56.3,60.8,56.3z"/>
			</g>
			<g>
				<path class="st0" d="M48.9,9.6l3.1,0c2.6,0,4.7-2.1,4.6-4.7c0-2.6-2.1-4.7-4.7-4.6l-3.1,0c-2.6,0-4.7,2.1-4.6,4.7
					C44.2,7.6,46.3,9.7,48.9,9.6z"/>
			</g>
			<g>
				<path class="st0" d="M37.9,37.7l-1.8,0c-2.6,0-4.7,2.1-4.6,4.7v0c0,2.6,2.1,4.7,4.7,4.6l1.8,0c2.6,0,4.7-2.1,4.6-4.7v0
					C42.6,39.8,40.5,37.7,37.9,37.7z"/>
			</g>
			<g>
				<path class="st0" d="M33.1,23.7L33.1,23.7c0-2.6-2.1-4.7-4.7-4.6l-6.1,0c-2.6,0-4.7,2.1-4.6,4.7v0c0,2.6,2.1,4.7,4.7,4.6l6.1,0
					C31,28.4,33.1,26.3,33.1,23.7z"/>
			</g>
			<path class="st0" d="M121.7,23.3c0.9,0,1.6-0.6,1.6-1.4s-0.7-1.4-1.6-1.3c-0.9,0-1.6,0.6-1.6,1.4
				C120.1,22.7,120.8,23.3,121.7,23.3z"/>
			<path class="st0" d="M118.4,18.8c0.8-0.8,0.9-1.9,0.3-2.5c-0.6-0.6-1.7-0.5-2.5,0.3c-0.8,0.8-0.9,1.9-0.3,2.5
				S117.6,19.5,118.4,18.8z"/>
			<path class="st0" d="M126.8,19.2c0.5-0.5,0.4-1.5-0.4-2.3c-0.7-0.8-1.7-1.1-2.2-0.6c-0.5,0.5-0.4,1.5,0.4,2.3
				C125.2,19.3,126.2,19.6,126.8,19.2z"/>
			<path class="st0" d="M138.5,32.8C138.5,15,126.7,0.5,109,0c0,0,0,0,0,0l4.2,0L64.6,0.2C62,0.2,60,2.3,60,4.9
				c0,2.6,2.1,4.7,4.7,4.6l13.7-0.1c2.6,0,4.7,2.1,4.7,4.6v0c0,2.6-2.1,4.7-4.6,4.7L42.3,19c-2.6,0-4.7,2.1-4.6,4.7v0
				c0,2.6,2.1,4.7,4.7,4.6l25-0.2c2.6,0,4.7,2.1,4.7,4.6l0,0c0,2.6-2.1,4.7-4.6,4.7l-15.1,0.1c-2.6,0-4.7,2.1-4.6,4.7v0
				c0,2.6,2.1,4.7,4.7,4.6l26.3-0.1c2.6,0,4.7,2.1,4.7,4.6v0c0,2.6-2.1,4.7-4.6,4.7l-4.2,0c-2.6,0-4.7,2.1-4.6,4.7v0
				c0,2.6,2.1,4.7,4.7,4.6l35-0.1c0.8,0.1,1.5,0.1,2.3,0.2c-0.4,0-0.7,0-1.1-0.1C127.6,64.1,138.5,50,138.5,32.8z M88.5,25.3
				c0-5.4,10.2-15.7,22.7-15.7l0,0c12.5,0,22.7,11.1,22.7,15.7v0.1c0,1.4-1.2,2.6-2.6,2.6H91.1C89.7,27.9,88.5,26.7,88.5,25.3
				L88.5,25.3z M101.1,36.4c0.7,0.7,1.8,0.7,2.5,0l5.8-5.8h20c2.4,0,4.4,1.8,4.6,4.1c0.2,2.6-1.9,4.7-4.4,4.7H93
				c-2.5,0-4.6-2.1-4.4-4.7c0.2-2.4,2.2-4.1,4.6-4.1h2.2L101.1,36.4z M98.9,30.6h6.9l-3,3c-0.2,0.2-0.6,0.2-0.9,0L98.9,30.6z
				 M95.3,54c-3.8,0-6.8-3-6.8-6.8v-3.1c0-1,0.8-1.9,1.9-1.9h41.7c1,0,1.9,0.8,1.9,1.9v3.1c0,3.8-3,6.8-6.8,6.8H95.3z"/>
			<g class="st2">
				<path class="st0" d="M113.3,65.6c-0.5,0-1,0-1.5,0C112.3,65.6,112.8,65.6,113.3,65.6z"/>
			</g>
			<path class="st3" d="M114.3,0C114.3,0,114.3,0,114.3,0l-0.8,0c0,0-0.1,0-0.1,0c-0.1,0-0.1,0-0.2,0L109,0c0,0,0,0,0,0
				c17.7,0.5,29.5,15,29.5,32.8c0,17.2-10.9,31.3-27.8,32.7c0.4,0,0.7,0.1,1.1,0.1c0.5,0,1,0,1.5,0c18.1,0,32.8-14.7,32.8-32.8
				C146.1,15,131.9,0.5,114.3,0z"/>
		</g>
	</g>
</g>
</svg>
